# xmcd
#
# Track frame offsets: 
#        150
#        18401
#        31195
#        40843
#        64716
#        72869
#        93862
#        115597
#        130339
#        148614
#        166782
#        185301
#        201840
#        219749
#
# Disc length: 3153 seconds
#
# Revision: 0
# Processed by: cddbd v1.5.2PL0 Copyright (c) Steve Scherf et al.
# Submitted via: ExactAudioCopyFreeDBPlugin 1.0
#
DISCID=bc0c4f0e
DTITLE=26A - STE20试音极品TESTCD
DYEAR=2015
DGENRE=STE
TTITLE0=山茶花
TTITLE1=Crazy
TTITLE2=Ei Choclo
TTITLE3=L’arlesienne Suite
TTITLE4=赛马
TTITLE5=我有一段情
TTITLE6=花房姑娘
TTITLE7=Another Place Another Time
TTITLE8=回家
TTITLE9=不装饰你的梦
TTITLE10=Besame Mucho
TTITLE11=因为爱情
TTITLE12=妹妹找哥泪花流
TTITLE13=Brother Louie
EXTD=
EXTT0=
EXTT1=
EXTT2=
EXTT3=
EXTT4=
EXTT5=
EXTT6=
EXTT7=
EXTT8=
EXTT9=
EXTT10=
EXTT11=
EXTT12=
EXTT13=
PLAYORDER=
